<?xml version="1.0" encoding="utf-8"?>
<!-- Generator: Adobe Illustrator 23.1.1, SVG Export Plug-In . SVG Version: 6.00 Build 0)  -->
<svg version="1.1" id="Layer_1" xmlns="http://www.w3.org/2000/svg" xmlns:xlink="http://www.w3.org/1999/xlink" x="0px" y="0px"
	 viewBox="0 0 500 250" style="enable-background:new 0 0 500 250;" xml:space="preserve">
<style type="text/css">
	.st0{clip-path:url(#SVGID_2_);fill:#22499C;}
	.st1{clip-path:url(#SVGID_2_);fill:#745EA9;}
</style>
<g>
	<defs>
		<rect id="SVGID_1_" x="21.7" y="-20" width="456.5" height="289.9"/>
	</defs>
	<clipPath id="SVGID_2_">
		<use xlink:href="#SVGID_1_"  style="overflow:visible;"/>
	</clipPath>
	<path class="st0" d="M415.4,218.3c1.2,0.3,2.3,0.5,3.5,0.8c3,0.7,6,1.1,9,1.6c2.2,0.4,4.4,0.9,6.5,1.8c1.8,0.7,3.2,1.9,4.1,3.6
		c0.3,0.7,0.8,1.2,1.7,1.4c1,0.2,1.3,0.9,1,1.9c-0.2,0.7-0.6,1.3-1.1,1.8c-0.5,0.5-1,0.6-1.7,0.5c-1.2-0.2-2.4-0.3-3.6-0.5
		c-4.8-0.7-9.5-1.3-14.3-1.8c-4.1-0.4-8.2-0.9-12.3-1.3c-2.8-0.3-5.7-0.5-8.5-0.8c-3-0.3-6-0.6-9-0.8c-3.1-0.3-6.2-0.5-9.2-0.8
		c-3.3-0.3-6.7-0.6-10-0.8c-2.5-0.2-5-0.3-7.5-0.5c-2.7-0.2-5.5-0.4-8.2-0.6c-1.3-0.1-2.6-0.1-3.9-0.2c-3.2-0.2-6.3-0.3-9.5-0.5
		c-4.5-0.3-9-0.5-13.5-0.7c-3.4-0.1-6.8-0.3-10.2-0.4c-4.8-0.2-9.6-0.3-14.4-0.5c-3.5-0.1-6.9-0.1-10.4-0.2
		c-11.1-0.4-22.2-0.2-33.3-0.1c-3.7,0-7.5,0.1-11.2,0.2c-4.4,0.2-8.8,0.3-13.3,0.5c-4.2,0.2-8.3,0.3-12.5,0.5
		c-3.5,0.1-6.9,0.3-10.4,0.4c-4.5,0.2-9,0.4-13.5,0.7c-3.7,0.2-7.5,0.4-11.2,0.7c-3.6,0.2-7.1,0.6-10.7,0.8
		c-3.2,0.3-6.4,0.5-9.6,0.8c-3.5,0.3-6.9,0.7-10.4,1.1c-2.8,0.3-5.7,0.6-8.5,1c-4.4,0.5-8.7,1.1-13.1,1.7c-6.9,1-13.7,2.1-20.6,3.4
		c-11.5,2.2-22.9,4.8-34.2,8c-4,1.1-7.9,2.5-11.8,3.7c-2.1,0.6-4.2,1.2-6.3,1.8c-2.8,0.8-4.8-1.1-4.3-3.9c0.2-0.9,0.4-1.9,0.6-2.8
		c0.2-0.7,0.2-1.4,0.2-2c-0.1-0.8-0.4-1.1-1.3-1.1c-0.3,0-0.6,0.1-0.9,0.1c-0.7,0.1-1-0.1-1-0.8c0-0.5,0.2-1,0.4-1.4
		c0.4-0.9,0.2-1.3-0.7-1.7c-0.6-0.3-1.2-0.4-1.8-0.7c-0.2-0.1-0.4-0.1-0.5-0.2c-5-1.5-4.6-6.6-2.3-9.2c1.5-1.7,3.4-2.8,5.5-3.5
		c2.9-1.1,5.9-1.6,8.9-2.3c7.4-1.7,14.9-3.3,22.4-4.8c6.2-1.2,12.4-2.2,18.7-2.9c6.8-0.8,13.6-1.8,20.4-2.8
		c4.1-0.6,8.2-1.1,12.4-1.5c3.8-0.3,7.5-0.7,11.3-1.1c2.7-0.2,5.4-0.4,8.1-0.5c3.3-0.2,6.6-0.4,9.9-0.6c1.8-0.1,3.6-0.1,5.4-0.2
		c2.6-0.1,5.1-0.2,7.7-0.3c6.4-0.2,12.9-0.4,19.3-0.5c5.9-0.2,11.8-0.2,17.7-0.1c3.7,0.1,7.3,0,11,0.2c3.1,0.2,6.2,0.1,9.3,0.2
		c2.7,0.2,5.3,0.1,8,0.2c5,0.2,10,0.3,15,0.5c4.1,0.1,8.2,0.3,12.4,0.5c4.1,0.2,8.2,0.3,12.3,0.6c2.1,0.1,4.2,0.2,6.3,0.3
		c3.6,0.2,7.2,0.4,10.7,0.6c1.4,0.1,2.7,0.1,4.1,0.2c3.9,0.3,7.8,0.5,11.8,0.8c4.2,0.3,8.4,0.7,12.5,1.1c4.4,0.4,8.8,0.8,13.2,1.2
		c3.7,0.4,7.4,0.8,11,1.3c2.5,0.3,4.9,0.6,7.4,0.9c0.7,0.1,1-0.1,0.9-0.9c0-1-0.5-1.8-1.2-2.5c-2-2.2-3.8-4.6-5.4-7.1
		c-0.1-0.2-0.3-0.4-0.4-0.5c-1.8-1.8-3-4.1-3.9-6.4c-0.7-1.6-1-3.3-1.5-5c-0.5-1.6-1-3.3-1.6-4.9c-0.8-2.1-1.5-4.2-2.4-6.3
		c-1-2.5-2.1-4.9-3.4-7.2c-1.3-2.4-2.4-4.9-3.2-7.5c-1-3.4-1.6-6.8-2.1-10.3c-0.4-2.6-1.1-5.1-1.9-7.6c-0.4-1.5-0.9-2.9-1-4.5
		c-0.1-0.8-0.3-1.6-0.4-2.4c-0.6-4.4-0.8-8.9-0.7-13.4c0-1.6-0.2-3.1-0.4-4.7c-0.1-0.7-0.1-1.4,0.3-2.1c0.1-0.2,0.2-0.4,0.2-0.5
		c0.2-2,0.4-4,0.1-5.9c-0.3-2.2-3.2-3.8-5.3-3.1c-0.5,0.2-0.9,0.3-1.4,0.6c-1,0.6-1.7,1.4-1.6,2.6c0.2,1.9-0.6,3.5-1,5.2
		c-0.1,0.3-0.3,0.6-0.5,0.9c-0.6,0.9-1.1,1.9-1.2,3c-0.1,0.5-1.3,1.1-1.7,0.9c-0.3-0.1-0.4-0.4-0.2-0.7c0.4-0.8-0.1-1.8,0.4-2.7
		c0.1-0.1,0-0.4-0.1-0.5c-0.3-0.5-2.1-1-2.6-0.7c-0.6,0.4-1.1,0.8-1.7,1.1c-0.4,0.2-0.4,0.7-0.6,1.1c-0.4-1-0.4-1.2,0.3-1.6
		c0.7-0.4,1-1,0.9-1.8c0-0.3,0-0.5,0.2-0.7c0.5-0.9,0.9-1.7,1.3-2.7c-0.6,0.5-1.4,0.9-2.1,1.2c-0.7,0.3-0.8,1.1-1.2,1.6
		c-0.3,0.4-0.6,0.8-0.9,1.1c-1,0.8-1.7,1.7-1.7,3.1c0,0.9-0.9,1.6-1.2,2.4c-0.3,0.5-0.6,1-0.1,1.5c0.3,0.3,0.1,0.7-0.2,0.9
		c-0.3,0.3-0.7,0.2-0.9-0.1c-1.3-1.3-2.5-2.6-3.2-4.2c0-0.1,0-0.2,0-0.3c0.1-0.1,0.3-0.1,0.4,0c0.2,0.2,0.4,0.5,0.7,0.8
		c0.4,0.4,0.7,0.4,1.1,0c0.6-0.6,1-1.3,1-2.1c0-0.7,0.1-1.4,0.7-1.8c0.2-0.1,0.3-0.3,0.1-0.5c-0.1-0.2-0.3-0.3-0.6-0.2
		c-0.2,0.1-0.4,0.2-0.5,0.1c-1.1-0.6-2,0.2-2.9,0.5c-0.6,0.1-0.6,0.4-0.2,0.9c0.2,0.3,0.5,0.5,0.6,0.8c0,0.2,0,0.3-0.1,0.4
		c-0.2,0.1-0.3,0-0.4-0.1c-0.1-0.1-0.2-0.3-0.3-0.5c-0.2-0.3-0.4-0.5-0.7-0.2c-0.4,0.4-0.7,0.1-0.9-0.2c-0.3-0.5-0.5-1-1.2-1
		c-0.5,0-0.6-0.5-0.2-0.8c0.4-0.3,0.8-0.6,1.2-0.8c1.1-0.5,1.6-1.4,1.5-2.6c-0.1-1.3-0.3-2.7-0.4-4c-0.1-1.2-0.7-2.1-1.8-2.6
		c-0.2-0.1-0.5-0.3-0.7-0.4c-0.8-0.5-1.2-1.1-1.2-2.1c0.1-1.4-0.5-2.7-1.3-3.9c-0.4-0.7-0.4-1.4-0.5-2.1c-0.1-1-0.2-2-0.3-3.1
		c-0.1-1.2-0.5-2.4-0.7-3.6c-0.1-0.6-0.2-1.3-0.1-1.9c0-0.4,0-0.9,0.4-1.1c0.2-0.2,0.3-0.4,0.3-0.7c0-0.4,0.2-0.7,0.5-0.9
		c0.5-0.3,0.7-0.6,0.5-1.2c-0.1-0.3,0.1-0.6,0.4-0.8c0.7-0.5,0.9-1.1,0.6-1.9c-0.2-0.5,0-0.7,0.4-0.9c0.5-0.2,0.6,0.1,0.7,0.5
		c0.1,0.4,0.3,0.6,0.6,0.8c0.8,0.6,1.8,0.8,2.5,1.6c-0.1-0.5-0.5-0.8-0.8-1.1c-0.3-0.3-0.5-0.7-0.4-1.1c0.1-0.4,0.4-0.6,0.8-0.3
		c0.4,0.3,0.7,0.7,1.1,1c0.4,0.4,0.7,0.6,1.2,0.1c0.3-0.3,1.1-0.2,1-0.9c-0.1-0.7-0.8-0.4-1.2-0.5c-1.1-0.4-2.2-0.7-3.4-0.7
		c-0.5,0-0.6-0.5-0.4-1c0.4-0.7,0.9-1.2,1.8-1.2c0.6,0,1.1,0,1.7,0c-0.1-0.5-0.5-0.7-0.9-0.7c-0.7,0-1.2-0.4-1.7-0.8
		c-0.1-0.1-0.2-0.2-0.2-0.2c-1-1.1-2.1-1.2-3.4-0.7c-0.3,0.1-0.7,0.5-0.9,0.1c-0.2-0.4,0.3-0.5,0.5-0.7c0.5-0.5,1-0.9,1.8-1
		c-0.3,0-0.7,0-1-0.1c-0.3,0-0.7-0.1-0.7-0.5c0-0.5,0.4-0.5,0.7-0.6c0.1,0,0.3,0,0.5,0c0.5,0,0.9,0,1.3-0.3c0.4-0.3,0.9-0.1,1.3,0
		c0.3-0.3,0.2-0.7,0.3-1c0.2-0.4,0.6,0,1-0.2c-0.4-0.4-0.9-0.6-1.4-0.7c-0.7-0.2-1.2-0.8-1.7-1.3c-0.2-0.2-0.3-0.5-0.1-0.7
		c0.2-0.3,0.5-0.3,0.8-0.2c0.4,0.1,0.5,0.5,1,0.5c0.1-0.4-0.3-0.4-0.4-0.6c-0.2-0.2-0.3-0.4-0.2-0.6c0.1-0.2,0.4-0.2,0.6-0.1
		c0.1,0.1,0.3,0.1,0.6,0.2c-0.1-0.6-0.2-1.1,0.3-1.5c0.4-0.3,0.7-0.6,1.3-0.4c0.5,0.2,1.1,0.2,1.6,0.5c0.3,0.2,0.6,0.2,1,0.1
		c-0.4-0.5-0.8-0.9-1.3-1.1c-0.3-0.1-0.6-0.2-0.8-0.4c-0.2-0.3-0.5-0.5-0.2-0.9c0.2-0.3,0.5-0.3,0.8-0.2c0.2,0.1,0.4,0.3,0.6,0.2
		c0.1-0.4-0.3-0.4-0.5-0.5c-0.7-0.4-0.7-0.5,0-1c0.1,0,0.1-0.1,0.2-0.2c0,0,0-0.1,0-0.1c-0.6-1-0.6-1.1,0.3-1.9
		c0.2-0.1,0.4-0.3,0.5-0.5c1.2-1.6,2.8-2.2,4.7-2.4c1-0.1,2-0.2,3-0.2c0.8,0,1.5,0.3,1.9,1.1c0.5,1,1.2,1.9,1.4,3.1
		c0.2-0.5,0.1-0.8,0.1-1.2c0-0.4,0.1-0.7,0.5-0.8c0.5-0.1,0.9,0.2,1,0.6c0.1,0.4,0.1,0.8,0.2,1.3c0.1-0.6,0.3-1.2,0.9-1.4
		c0.4-0.2,0.4-0.7,0.6-1.1c0.1-0.2,0.2-0.4,0.3-0.6c0.1-0.2,0.3-0.4,0.7-0.3c0.3,0.1,0.3,0.4,0.3,0.7c0,0.2-0.1,0.5-0.2,0.6
		c-0.5,0.6-0.4,1.2-0.1,1.8c0.2,0.4,0.3,0.9,1,1.1c-0.7-1.1,0.1-1.9,0.1-2.8c0-0.3,0.4-0.4,0.6-0.2c0.5,0.3,0.7,0.3,1-0.3
		c0.3-0.6,0.7-0.5,1,0.1c0.1,0.3,0.1,0.6,0.4,0.8c0.3,0,0.3-0.3,0.3-0.5c0.1-0.4,0.3-0.7,0.7-0.7c0.5,0,0.8,0.2,0.9,0.7
		c0,0.1,0,0.3,0.2,0.4c0-0.5,0.1-0.9,0.4-1.3c0.4-0.5,0.6-0.5,1.1-0.1c0.2,0.2,0.5,0.5,0.6,0.8c0,0.2,0.1,0.3,0.3,0.2
		c0.2-0.1,0.3-0.3,0.1-0.5c-0.2-0.2-0.4-0.4-0.5-0.6c-0.2-0.2-0.3-0.4-0.1-0.6c0.1-0.2,0.4-0.2,0.6-0.2c0.3,0,0.5,0.1,1,0.8
		c0.1,0,0.2-0.1,0.3-0.1c1.1-0.9,1.6-0.9,2.3,0.5c0.3,0.7,0.7,1.4,0.7,2.1c0.1,0.5,0.1,0.5,0.7,1c0.2-0.3-0.1-0.4-0.2-0.6
		c-0.2-0.3-0.3-0.5-0.3-0.9c0-0.4-0.1-1,0.4-1.1c0.6-0.1,0.6,0.4,0.7,0.8c0,0.1,0,0.2,0.1,0.3c0,0.2,0.2,0.3,0.3,0.2
		c0.1,0,0.2-0.1,0.2-0.2c0.1-0.3,0.1-0.5,0.1-0.8c0.1-0.2,0.2-0.4,0.5-0.4c0.2,0,0.3,0.2,0.4,0.4c0.1,0.2,0,0.5,0.2,0.9
		c0-0.7,0-1.3,0-1.9c0-0.3,0-0.6,0-0.9c0.1-0.3,0.2-0.6,0.6-0.5c0.3,0,0.4,0.3,0.5,0.6c0.1,1,0.1,2.1,0,3.1c0,0.3-0.1,0.5-0.1,0.9
		c0.6-0.7,0.8-1.3,0.7-2.1c-0.1-0.6,0-1.1,0-1.7c0-0.4,0.1-0.8,0.6-0.9c0.5,0,0.5,0.5,0.5,0.8c0,0.4,0,0.8,0,1.3
		c0,0.4,0.1,0.7,0.4,0.9c0.4,0.3,0.8,0.2,0.9-0.3c0.1-0.7,0.2-1.3,0.4-2c0.3-0.6-0.5-0.6-0.8-0.9c0.2-0.4,0.5-0.4,0.8-0.4
		c1.4,0,2.7,0.2,4.1,0c1.1-0.1,2.2,0,3.3,0c1,0,2-0.1,3,0.2c0.4,0.1,0.6,0.3,0.3,0.7c-0.3,0.5-0.6,1-1,1.7c0.8-0.4,1.4-0.4,2.1,0
		c0.6,0.3,1.7-0.9,1.7-1.6c0-0.6-0.2-1.2-0.6-1.7c-0.3-0.3-0.6-0.6-0.7-1c-0.3-0.8,0.1-1.2,0.9-1.1c0.1,0,0.1,0,0.2,0
		c0.1,0,0.1,0,0.2-0.1c0.2-0.3,0.1-0.7,0.1-1c0.1-0.4,0.2-0.7,0.6-0.7c0.4,0,0.7,0.2,0.7,0.6c0,0.6,0,1.1,0.1,1.7
		c0,0.1,0,0.3,0.1,0.6c0.5-0.4,0.2-0.9,0.4-1.2C364.2,51,364,50,364,49c0.1-0.8-0.3-1.3-0.9-1.7c-0.4-0.2-0.7-0.4-1.1-0.6
		c-0.3-0.2-0.5-0.5-0.4-0.9c0.1-0.4,0.5-0.4,0.8-0.4c0.5,0.1,1,0.2,1.4,0.5c0.9,0.6,1,0.6,1.1-0.5c0-0.2,0-0.3,0-0.5
		c0.1-0.4,0.3-0.5,0.6-0.5c0.4,0,0.6,0.2,0.6,0.5c0,0.3,0.1,0.5,0.1,0.8c0,0.6,0.4,0.9,1,1.2c0.2-0.8,0.2-1.4,0-2
		c-0.1-0.2-0.2-0.5-0.3-0.7c-0.2-1,0.1-1.9,0.9-2.4c0.5-0.3,1-0.1,1.1,0.5c0.1,0.5-0.1,0.9-0.2,1.4c-0.1,0.8,0.2,1,0.9,0.9
		c1.1-0.2,1.6-0.9,1.4-2.1c-0.1-0.6-0.2-1.3,0.4-1.8c0.2-0.2,0.3-0.7-0.3-0.4c-0.2,0.1-0.3-0.1-0.4-0.3c-0.2-0.5-0.2-1,0.4-1.3
		c-0.4-0.3-1,0-1.1-0.6c-0.1-0.6,0.6-0.5,0.8-0.8c0-0.2-0.1-0.3-0.2-0.2c-1.5,0.5-3.1,0.9-4.6,1.3c-3,0.8-6,2.1-9.3,1.8
		c-1.2-0.1-2.4,0-3.6,0c-0.4,0-0.8,0-1.2-0.3c-0.4-0.3-0.4-0.6,0-1c0.3-0.3,0.7-0.3,1.1-0.3c1.6,0.1,2.6-0.8,3.5-2
		c0.3-0.4-0.1-0.7,0.1-1.1c1.2,0.4,2.4,0.3,3.6,0.3c0.2,0,0.3,0,0.5,0c0.3-0.1,0.8,0.2,0.9-0.3c0-0.4-0.3-0.9-0.8-0.8
		c-0.9,0.1-1.5-0.5-2.2-0.8c-0.6-0.2-0.6-0.6-0.1-1c0.3-0.2,0.6-0.4,0.7-0.7c0.3-0.5,0.3-0.8-0.2-1.2c-0.3-0.2-0.5-0.4-0.5-0.7
		c0-0.5-0.5-0.8-0.8-1.1c-0.3-0.4-0.6-0.4-0.9,0.1c-0.1,0.1-0.3,0.2-0.4,0.1c-0.2-0.1-0.2-0.2-0.2-0.4c0.1-1.2,1.2-2.6,2.3-2.9
		c0.6-0.2,1.2-0.2,1.7,0.3c0.5,0.5,1.4,0.5,1.9,1c-0.1-0.5-0.5-0.8-0.8-1.1c-0.2-0.2-0.3-0.4-0.2-0.6c0.2-0.3,0.5-0.4,0.8-0.3
		c0.6,0.2,1.1,0.4,1.6,0.8c0.3,0.2,0.5,0.6,1,0.6c-0.1-0.5-0.5-0.7-0.8-1.1c-0.2-0.3-0.5-0.5-0.7-0.7c-0.2-0.3-0.3-0.5-0.1-0.8
		c0.2-0.3,0.6-0.3,0.8-0.1c0.5,0.3,0.9,0.6,1.6,0.6c-1-0.4-1.1-1.3-1.2-2.1c-0.1-0.6,0.1-0.9,0.7-0.9c0.6-0.1,1.2-0.2,1.7,0.2
		c0.7,0.5,1.6,0.4,2.3,0.9c0.1,0.1,0.3,0.1,0.4,0.1c0.2,0,0.3,0,0.3-0.2c0-0.2-0.1-0.3-0.3-0.3c-0.7-0.1-1.4-0.5-2.1-0.6
		c-0.7-0.1-1.2-0.6-1.9-0.7c-0.4-0.1-0.3-0.4-0.1-0.6c0.4-0.5,0.9-0.4,1.4-0.4c0.1-0.2,0.1-0.3,0-0.4c-0.3-0.3-0.5-0.7-0.2-1.1
		c0.4-0.4,0.7-1.1,1.4-1c0.4,0.1,0.8,0,1.2-0.2c0.6-0.2,1.2-0.2,1.8,0.1c0.4,0.2,0.9,0.3,1.3,0.1c0.5-0.2,0.6-0.6,0.2-0.9
		c-0.8-0.6-0.9-1.4-0.5-2.2c0.2-0.4-0.4-1,0.3-1.2c0.5-0.1,0.7,0.5,1.1,0.7c0.1,0.1,0.2,0.1,0.4,0.2c-0.1-0.6-0.3-1-0.5-1.4
		c-0.3-0.5-0.1-0.9,0.5-1.2c0.5-0.2,0.7,0,0.9,0.4c0.2,0.5,0.6,0.9,1,1.2c0.4-0.2,0.4-0.8,0.9-0.8c0.4-0.1,0.7,0.3,1.1,0.4
		c0-0.4,0-0.7,0.1-1c0.1-0.5,0.5-0.6,0.9-0.2c0.4,0.3,0.6,0.8,0.7,1.3c0,0.5,0.2,0.9,0.8,1.2c-0.1-0.7-0.6-1-0.6-1.6
		c0.1-0.6-0.2-1.1-0.5-1.6c-0.5-1-0.2-1.7,0.9-1.9c0.6-0.1,1.3-0.5,2.1-0.2c-0.4,0.4-0.8,0.4-1.1,0.5c-1,0.2-1,0.3-0.6,1.2
		c0.1,0.1,0.1,0.3,0.2,0.5c0.3-0.2,0.3-0.8,0.8-0.6c0.4,0.1,0.4,0.5,0.5,0.8c0.2,0.5,0.5,1,0.6,1.5c0-0.4,0-0.8,0.1-1.1
		c0-0.3,0.1-0.5,0.5-0.5c0.3,0,0.4,0.2,0.4,0.5c0,0.9,0.6,1.5,0.7,2.4c0.2-0.9,0.1-1.7-0.3-2.5C384,10.6,384,10,384,9.4
		c0-0.3,0-0.6,0.3-0.7c0.4-0.1,0.6,0.1,0.8,0.4c0.3,0.3,0.5,0.7,0.5,1.1c0,0.3,0,0.7,0.5,0.9c0.3-0.5,0.1-1,0.1-1.5
		c0.1-0.8,0.3-1.1,0.8-1.1c0.5,0,0.8,0.4,0.8,1c0.1,0.8-0.1,1.6,0.5,2.3c0.1,0.2,0,0.4-0.1,0.5c-0.2,0.2-0.3,0.5-0.2,0.9
		c0.4-0.7,0.9-1.4,1.5-1.6c0.6-0.2,1.3-0.2,2,0c0.2-0.3,0.1-0.6-0.1-0.8c-0.2-0.3-0.5-0.5-0.3-0.8c0.2-0.4,0.6-0.1,1-0.1
		c0.1-0.4-0.1-0.7-0.3-1.1c-0.1-0.2-0.2-0.5-0.2-0.8c0.1-0.4,0.5-0.7,0.7-0.4c0.7,0.8,1.7,0.8,2.6,1c0.4-0.6,0.7-1.4,1.7-1.1
		c0.3,0.1,0.3-0.3,0.5-0.4c0.6-0.6,1.3-0.6,1.8,0.1c0.1,0.1,0.2,0.3,0.2,0.2c1.4-0.4,1.4,0.7,1.8,1.5c0,0.1,0.1,0.1,0.2,0.2
		c0,0,0.1,0,0.2,0.1c0.3-0.3,0.1-0.8,0.2-1.2c0.1-0.3,0.1-0.6,0.5-0.7c0.3,0,0.5,0.2,0.6,0.5c0.1,0.5,0.3,0.7,0.8,0.8
		c0.3,0.1,0.6,0.4,0.8,0.6c0.4-0.2,0.2-0.6,0.3-0.9c0.2-0.4,0.4-0.4,0.7-0.2c0.6,0.3,0.7,0.8,0.4,1.8c0.5-0.2,0.6-0.6,0.7-1
		c0.3-1,1.3-1.1,2-1.6c0.2-0.1,0.4,0.1,0.5,0.2c0.5,0.4,0.7,1,0.7,1.6c0.5-0.1,0.5-0.4,0.7-0.7c0.4-0.8,1.1-1.3,1.9-1.2
		c0.4,0.1,0.8,0.2,0.9,0.7c0.1,0.5,0.5,0.8,0.8,1.1c0.3,0.3,0.6,0.3,0.9,0c1.1-0.8,1.6-0.6,1.9,0.9c0.7-0.9,1.4-0.7,2.2-0.3
		c0.7,0.3,1.4,0.5,2.1,0.7c0.8,0.2,0.9,0.4,0.9,1.3c0,0.4-0.2,0.7,0,1.1c0.3,0,0.4-0.3,0.6-0.4c0.6-0.5,0.8-0.4,1,0.4
		c0,0.1,0,0.2,0.1,0.5c0.3-0.4,0.4-0.8,0.8-1c0.4-0.3,0.9-0.1,0.9,0.4c0,0.5,0,0.9,0.4,1.4c0.3,0.4-0.3,0.7-0.3,1.2
		c0.6-0.4,1-0.8,1.2-1.4c0.1-0.4,0.3-0.8,0.8-0.5c0.4,0.1,0.5,0.7,0.2,1.1c-0.2,0.3-0.6,0.6-0.8,0.9c-0.2,0.3-0.6,0.4-0.7,0.9
		c0.4,0.1,0.5-0.2,0.7-0.3c0.7-0.6,1.3-1.3,2-1.9c0.6-0.5,1.8-0.1,1.9,0.7c0.1,0.3-0.1,0.4-0.2,0.6c-0.2,0.2-0.3,0.5-0.2,0.7
		c0,0.4,0.3,0.6,0.6,0.3c0.5-0.3,0.8-0.8,1.3-1.2c0.8-0.8,1-0.8,1.9-0.2c0.7,0.5,1.6,0.5,2.1,1.4c0.1,0.2,0.4,0.1,0.6,0
		c0.3-0.2,0.6-0.1,0.8,0.2c0.2,0.3,0.2,0.7-0.1,0.9c-0.4,0.4-0.9,0.7-1.2,1.3c0.5,0.1,0.8-0.3,1.1-0.4c0.3,0,0.6-0.1,0.8,0.2
		c0.2,0.3,0,0.6-0.2,0.8c-0.3,0.4-0.7,0.5-1.2,0.6c-0.4,0-0.8,0-1,0.5c0.4,0.3,0.7-0.3,1-0.1c0.1,0.1,0.1,0.3,0,0.4
		c-0.8,0.6-1.4,1.4-2,2.2c-0.6,0.8-1.3,1.4-2.3,1.7c0,0.3,0.4,0.3,0.4,0.6c-0.1,0.3-0.2,0.4-0.4,0.5c-0.6,0.3-1.1,0.7-1.8,0.7
		c-0.6,0-0.9,0.6-1.4,1c0.4,0.3,0.6-0.5,1.1-0.1c0,0.6-0.4,0.9-0.8,1.3c-0.9,0.8-1.7,1.8-2.9,2.5c-0.5,0.3-0.8,0.8-1.1,1.3
		c-0.1,0.3-0.3,0.6-0.4,0.9c-0.3,0.6-0.5,0.6-1.1,0.3c-0.1-0.1-0.3-0.2-0.4-0.2c-0.2,0.2,0,0.4,0,0.5c0,0.5-0.2,0.7-0.6,0.4
		c-0.6-0.4-0.8,0-0.8,0.5c-0.1,0.5-0.1,1.1,0,1.6c1.7,0,3.3,0,5,0c0.9,0,1.7,0,2.2,0.9c1.3,0.4,1.2,1.7,1.9,2.6
		c0.3,0.4,0.1,0.7-0.3,0.9c-0.4,0.1-0.8,0.2-1.1,0.7c1.7-0.3,1.4,0,1.3,1.2c1.5,0.6,3,0.7,4.6,0.6c0.1,0,0.2,0,0.2,0
		c0.5,0.1,1.1-0.2,1.2,0.5c0.1,0.8-0.7,0.5-1.1,0.7c0,0,0,0.1-0.1,0.1c0.6,0.9,0.5,2,0.9,3c0.2,0.6-0.3,0.9-0.7,1.5
		c0.8-0.3,1.4-0.4,1.9,0c0.2,0.2,0.6,0,0.9,0.1c0.7,0.1,0.9,0.4,0.6,1.1c-0.6,1.1-0.6,1,0.5,1.5c0.6,0.2,1.1,0.2,1.7,0.2
		c1,0,1.2,0.5,0.7,1.4c-0.3,0.5-0.7,0.9-1.2,1.2c-0.2,0.2-0.4,0.3-0.6,0.5c-0.1,0.1-0.1,0.2,0,0.3c0.1,0.1,0.2,0.1,0.3,0.1
		c0.2-0.1,0.4-0.3,0.7-0.4c0.6-0.3,1.3-0.4,2-0.1c0.5,0.2,0.7,0.6,0.7,1.1c0,0.5,0,0.9-0.6,1.1c-0.7,0.3-0.7,0.7,0,1.1
		c0.6,0.4,1.1,1,1.9,1.2c0.5,0.1,0.3,0.8,0.3,1.2c0,0.4-0.2,0.7-0.7,0.8c-0.3,0-0.5,0.1-0.9,0.1c0.5,0.7,0.7,1.3,0,2
		c-0.1,0.1-0.1,0.4,0,0.5c0.6,0.9,0.4,1.8,0,2.6c-0.2,0.5-0.1,0.8,0.3,1.1c0.9,0.7,1.6,1.6,1.1,2.8c-0.1,0.3,0.1,0.5,0.4,0.6
		c0.3,0.2,0.6,0.4,0.7,0.7c0.1,0.4,0.1,0.8-0.3,1.1c-0.7,0.6-0.7,0.6-0.2,1.3c0.3,0.4,0.6,0.8,0.5,1.3c0,0.4-0.1,0.9-0.6,1
		c-0.4,0.1-0.7,0-1-0.4c-0.1-0.1-0.1-0.2-0.3-0.1c-0.2,0.2,0,0.4,0,0.6c0.1,0.9,0.1,1-0.8,1.1c-0.6,0.1-0.6,0.4-0.4,0.8
		c0.2,0.5,0.4,0.9,0.6,1.4c0.2,0.9-0.3,1.6-1.2,1.5c-0.4,0-0.7-0.2-0.8-0.7c-0.1-0.3-0.1-0.7-0.5-0.8c-0.3,0.2-0.1,0.4-0.1,0.6
		c0.3,0.6,0.6,1.2,0.8,1.8c0.4,0.7,0.5,1.5,0.4,2.3c0,0.3-0.1,0.7-0.4,0.8c-0.7,0.2-0.4,0.6-0.3,1.1c0.2,0.7-0.1,1.1-0.8,1.2
		c-0.7,0.1-1.3-0.1-1.9-0.3c-0.4-0.1-0.5-0.4-0.5-0.8c0-0.5-0.2-0.9-0.8-1.2c-0.3-0.1-0.4-0.5-0.5-0.7c-0.3-0.4-0.5-0.9-0.8-1.2
		c-0.3-0.4-0.6-0.7-0.9-1c-0.2,0.3,0,0.5,0.1,0.7c0.3,0.4,0.3,0.7,0.2,1.2c-0.2,0.8-0.1,1.5,0,2.3c0.2,1,0.1,2.1,0.1,3.1
		c0,0.4-0.1,0.7-0.5,0.8c-0.4,0-0.5-0.3-0.7-0.6c-0.2-0.5-0.4-1-0.7-1.4c-0.2-0.4-0.6-0.3-0.7,0.1c-0.1,0.3-0.1,0.7-0.1,1
		c0,0.3,0,0.7-0.4,0.9c-0.4,0.2-0.7,0-1-0.4c0-0.1-0.1-0.1-0.3-0.2c0.1,1.4-0.9,2.4-0.7,3.8c0.1,0.4-0.1,0.8-0.5,1.1
		c-0.3,0.2-0.6,0.3-1,0.1c-0.3-0.2-0.3-0.5-0.2-0.8c0.1-0.5,0.5-1.1,0.2-1.7c-0.8,0.4-1.2,0.9-1.4,1.7c-0.1,0.4-0.2,0.8-0.2,1.2
		c0,0.9-0.7,1.1-1.3,1.3c-0.5,0.2-0.7-0.1-0.8-0.5c-0.1-0.3,0-0.7-0.4-0.7c-0.4,0.1-0.3,0.5-0.3,0.8c0,1-0.5,1.7-1.2,2.2
		c-0.4,0.3-0.5,0.5-0.3,1c0.2,0.5,0.2,1.1,0.1,1.7c-0.1,0.6-0.4,0.7-0.9,0.5c-0.7-0.3-1.5-0.5-1.4-1.5c0-0.6-0.5-1-0.8-1.4
		c-0.3,0-0.3,0.3-0.4,0.5c-0.6,0.7-0.9,0.9-1.7,0.1c-0.6-0.6-0.8-0.6-1.3,0c-0.2,0.3-0.3,0.5-0.1,0.8c0.3,0.3,0.5,0.7,0.1,1.1
		c-0.4,0.4-0.8,0-1.1-0.2c-0.2-0.1-0.3-0.3-0.6-0.3c0.1,0.7,0.3,1.5,0,2.2c-0.3,0.8-0.9,1.2-1.9,1.1c0.2,1.2,0.4,2.2-0.2,3.2
		c-0.2,0.3-0.1,0.8-0.1,1.2c0,0.7-0.1,1.3-0.5,1.9c-0.2,0.3-0.4,0.6-0.9,0.7c-0.5,0.1-0.9,0.3-1.1,0.8c-0.2,0.4-0.6,1-1.2,0.8
		c-0.6-0.2-0.3-0.8-0.3-1.3c0-0.1,0-0.2,0-0.2c-0.6,0.5-0.7,0.5-0.7,1.3c0,0.5-0.3,0.8-0.8,1c-0.8,0.4-1.6,0.7-2.5,0.7
		c-0.6,0-1.3,0.8-1.4,1.6c-0.1,1.1-0.2,2.2,0.1,3.3c0.4,0,0.3-0.3,0.3-0.5c0.1-0.5,0.2-1,0.5-1.4c0.2-0.2,0.4-0.4,0.7-0.3
		c0.3,0.1,0.5,0.4,0.5,0.7c0.1,0.4-0.1,0.7-0.3,1c-0.9,1.1-1.1,2.3-1.1,3.6c0.1,2.9,0.2,5.9,0.4,8.8c0.2,3.6,0.3,7.2-0.1,10.7
		c0,0.3,0,0.5,0,0.8c0,0.2,0.2,0.5,0.1,0.7c-0.4,0.9-0.3,2.1-0.8,2.9c-0.6,1-0.5,2-0.2,3c0.5,1.6,0.7,3.2,0.8,4.8
		c0.1,2.2,0.2,4.4,0,6.6c-0.3,3.1-0.1,6.3-0.2,9.4c0,1.5,0.3,3,0.3,4.6c-0.1,1.5-0.2,3-0.4,4.5c-0.1,1-0.3,2-0.3,3.1
		c0,5.9,0,11.8,0,17.6c0,0.6,0,1.2-0.3,1.8c-0.4,0.9-0.1,1.9,0,2.8c0.2,1.1,0.5,2.2,0.8,3.3c0.4,1.4,1.3,2.4,2.4,3.3
		c2.3,1.8,4.6,3.6,6.9,5.4c0.1,0.1,0.2,0.1,0.3,0.2C415.9,217,415.9,217,415.4,218.3 M376.7,106.4L376.7,106.4
		c-1.2-1.2-2.4-2.4-4.3-2.5c-1.1-0.1-2.3-0.2-2.6-1.6c0-0.1-0.1-0.1-0.1-0.2c-0.3-0.3-0.6-0.6-1-0.4c-0.5,0.2,0,0.5,0,0.8
		c0,0.1,0,0.2,0,0.2c0,0.5-0.4,0.7-0.9,0.4c-0.3-0.3-0.6-0.6-0.9-0.9c-0.3-0.3-0.5-0.4-0.9-0.2c-0.8,0.4-1.1,0.2-1.2-0.7
		c-0.1-0.9-0.8-1.5-1.1-2.5c-0.3,0.6-0.6,1-0.8,1.4c-0.4,0.8-0.8,1.6-1.2,2.3c-0.4,0.7-0.8,0.8-1.5,0.7c-0.3-0.1-0.6-0.2-0.8-0.4
		c-0.8-0.5-1.6-0.6-2.5-0.2c-0.7,0.3-1.5,0.6-2.2,0.4c-1.1-0.2-1.8,0.1-2.3,1c-0.2,0.3-0.4,0.6-0.8,0.4c-0.2-0.1-0.4-0.1-0.5,0.1
		c-0.4,0.4-0.7,0.3-0.9-0.3c-0.2-0.5-0.6-0.4-0.9-0.1c-0.3,0.3-0.5,0.8-0.9,1c-0.2,0.1-0.4,0.2-0.6,0c-0.2-0.2,0-0.3,0.1-0.5
		c0.3-0.4,0.4-0.9,0.1-1.4c-0.2-0.3-0.6-0.4-0.9-0.7c-0.4-0.3-0.7,0.2-1,0.1c0-0.1,0-0.2,0.1-0.3c0.4-0.8,0.4-0.8-0.3-1.4
		c-0.2-0.2-0.3-0.4-0.4-0.7c-0.2-1-0.2-1-1.3-0.9c-0.3,0-0.6-0.1-0.7,0.2c-0.1,0.7-0.5,1.3-0.9,1.8c-0.1,0.2-0.1,0.4,0,0.6
		c0.5,0.7,0.2,1.7,0.8,2.3c0.3,0.3,0.1,0.6-0.1,0.9c-0.2,0.2-0.3,0.3-0.5,0.4c-0.7,0.3-0.8,0.9-0.5,1.5c0.1,0.3,0.1,0.6,0.1,0.9
		c-0.2,1.6-0.4,3.2,0.1,4.7c0.1,0.2,0.1,0.5,0,0.7c-0.2,0.5-0.1,0.9,0.1,1.3c0.2,0.4,0.3,0.9,0.3,1.3c0,0.5,0.1,0.9,0.3,1.3
		c0.3,0.6,0.8,1.2,0.8,1.9c-0.1,1.1,0.6,1.6,1.4,2.1c0.7,0.4,0.8,0.8,0.5,1.5c-0.2,0.5-0.6,0.9-0.9,1.3c-0.9,1.2-1.3,2.6-0.7,4.1
		c0.7,1.8,1.3,3.6,1.9,5.4c0.2,0.7,0.6,1.4,1.1,2c0.9,1,1,2.3,1.5,3.5c0.1,0.2-0.1,0.4-0.1,0.7c0,1.4,0.2,2.8,0,4.2
		c0,0.1,0,0.2,0.1,0.3c0.4,1,0.5,2.1,0.8,3.2c0.7,2.7,1.3,5.5,1.6,8.3c0,0.5,0.1,1.1,0.4,1.4c0.6,0.7,0.9,1.7,1.3,2.5
		c0.7,1.6,2,2.9,2.3,4.7c0,0.1,0.1,0.3,0.2,0.4c0.3,0.4,0.5,0.9,0.1,1.4c-0.4,0.5-0.1,0.8,0.4,0.9c1.3,0.4,2,1.5,2.2,2.7
		c0.3,1.2,0.8,2.2,1.3,3.3c0.3,0.7,0.6,1.5,1.1,2.2c1.3,1.9,2.7,3.9,3.6,6.1c0.2,0.4,0.4,0.8,0.6,1.2c0.4,0.7,0.8,1.3,1.7,1.4
		c0.5,0.1,0.8,0.4,1.1,0.8c0.3,0.4,0.7,0.8,1.1,1.2c1,1.1,1.6,2.4,1.7,3.9c0.1,1.3,0.2,1.5,1.5,1.1c0.4-0.1,0.7-0.1,0.9,0.2
		c0.8,1,1.8,1.8,2.2,3.1c0.1,0.2,0.2,0.4,0.4,0.5c0.9,0.8,1.5,1.9,2.1,3c0.5,0.8,0.9,1.6,1.7,2.1c1,0.6,1.9,1.2,3,1.7
		c1.7,0.9,2.6,0.7,3.8-0.3c0.9-0.8,1.8-1.7,2.9-2.3c1-0.5,1.1-1.1,1.1-2c0-0.3,0-0.6,0-0.9c-0.1-1.2,0.3-2.3,1-3.2
		c0.2-0.2,0.4-0.5,0.4-0.8c0.1-1.4,1.2-2.4,1.1-3.8c0-0.2,0.1-0.4,0.3-0.5c0.6-0.6,0.9-1.2,0.8-2.1c0-0.2,0-0.5,0.1-0.7
		c0.3-0.6,0.3-1.2,0.3-1.8c0-0.8,0-1.7,0-2.5c0-0.5,0-0.9,0.3-1.3c0.4-0.5,0.4-1.1,0.4-1.8c0-0.5,0-0.9,0.2-1.4
		c0.6-1.2,0.6-2.5,0-3.7c-0.1-0.3-0.3-0.7,0-1c0.5-0.5,0.4-1,0.3-1.6c0-0.7,0-1.4,0.1-2.2c0.1-0.4,0.1-0.9,0-1.4
		c-0.4-1.1-0.3-1.1,0.6-1.7c0.9-0.6,1.3-1.3,1.4-2.4c0-1.1,0.1-2.3,0.3-3.4c0.5-3.6,0.8-7.2,1.1-10.8c0-0.3,0-0.6,0-0.9
		c-0.2-2.3-0.4-4.6-0.4-6.8c0-2.8,0-5.6-0.3-8.5c-0.4-3.4-0.7-6.8-0.6-10.3c0.1-1.6-0.5-2.8-1.6-3.9c-0.2-0.2-0.3-0.3-0.5-0.5
		c-0.3-0.3-0.4-0.7,0-1c0.4-0.3,0.6-0.7,0.5-1.2c-0.1-0.3,0.1-0.5,0.2-0.8c0.1-0.2,0.1-0.4,0-0.5c-0.8-1-0.7-2.1-0.6-3.3
		c0-0.4-0.1-0.7-0.5-0.9c-0.3,0.1-0.3,0.6-0.6,0.7c-0.6,0.2-1.2,0.1-1.8,0.4c-0.2,0.1-0.3-0.1-0.4-0.3c-0.2-0.3,0.1-0.6-0.2-0.9
		c-0.9,0.4-0.9,0.4-1.2,1.3c-0.3,0.7-0.5,1.5-1.2,2c-0.4,0.3-0.7,0.2-0.9-0.3c-0.1-0.3-0.1-0.6-0.2-1c-0.1,0.6-0.1,1.1-0.2,1.6
		c0,0.3-0.2,0.5-0.5,0.5c-0.2,0.1-0.5,0-0.6-0.2c-0.3-0.3-0.1-0.7-0.3-1c-0.2-0.3-0.6,0.3-0.9-0.1c-0.4-0.7-1.2-1.1-1.7-1.8
		c-0.7-0.8-1.5-1.2-2.5-1.5c-0.8-0.2-1.6-0.5-2.4-0.7c-0.2-0.1-0.5-0.1-0.5-0.5c0,0,0.1-0.1,0.1-0.1c0.1,0,0.2,0,0.3-0.1
		c1.1-0.1,1.1-0.1,1.1-1.2c-0.1-1.1-0.2-2.2,0.5-3.4c-0.9,0.5-1.2,1.1-1.7,1.5C377.6,105.7,377.3,106.2,376.7,106.4 M415.1,73.7
		c0.1,1.1,0,1.2-0.9,0.8c-0.5-0.2-0.9-0.2-1.3,0c-0.5,0.3-0.7,0.2-1-0.3c-0.3-0.6-0.8-0.7-1.3-0.3c-0.4,0.3-0.7,0.6-0.6,1.2
		c0.1,0.5,0,0.9-0.3,1.3c-0.5,0.6-0.4,1.3-0.1,1.9c0.6,1.2,1,2.5,0.8,4c0,0.1,0,0.2,0,0.3c-0.1,0.7,0.2,1.2,0.7,1.7
		c0.9,0.8,1.7,1.7,2.6,2.5c0.4,0.3,0.6,0.7,0.9,1.2c0.3,0.6,0.4,1.2,0.6,1.8c0.3,0.7,0.5,1.4,0.5,2.2c0,0.3,0.1,0.5,0.5,0.6
		c0.5-0.5,0.7-1.3,1.2-1.9c0.7-0.7,0.8-1.5,0.8-2.4c0-0.9,0-1.7,0.4-2.6c0.3-0.5,0.2-1.2,0-1.7c-0.5,0.1-0.5,0.5-0.6,0.8
		c-0.1,0.2-0.3,0.4-0.5,0.3c-0.3-0.1-0.4-0.3-0.5-0.6c0-0.2,0-0.5,0.2-0.6c0.6-0.6,0.3-1.6,0.9-2.2c0,0,0-0.2,0-0.3
		c-0.1-0.2-0.3-0.2-0.4-0.1c-0.1,0.1-0.2,0.1-0.3,0.2c-0.6,0.3-0.8,0.2-0.8-0.5c0-0.1,0.2-0.3,0-0.4c-0.3-0.1-0.6-0.3-0.5-0.6
		c0-0.4,0.4-0.4,0.7-0.5c0.4-0.2,0.3-0.4,0-0.6c-0.3-0.1-0.5-0.3-0.8-0.4c-0.7-0.2-1.2-0.6-1.8-1c-0.2-0.1-0.3-0.3-0.3-0.5
		c0.1-0.3,0.3-0.4,0.5-0.4c0.3-0.1,0.5,0.1,0.7,0.2c0.4,0.3,0.8,0.3,1.2,0.3c0.7-0.1,1-0.5,0.7-1.1c-0.1-0.2-0.4-0.5-0.4-0.7
		C416.6,74.4,415.9,74.1,415.1,73.7 M335.5,100.8c-0.4-0.9-1.3-1-2-1.4c-0.2-0.1-0.5,0.2-0.7,0.4c-0.3,0.3-0.6,0.6-1,0.9
		c-0.3,0.3-0.8,0.5-1.1,0.1c-0.6-0.5-1.4-1-1.5-1.9c0-0.3-0.1-0.6-0.4-0.6c-1.1-0.1-2.1-0.2-3.2,0.1c-0.2,0-0.3,0.2-0.4,0.4
		c-0.5,0.9-1,1.8-1.6,2.6c-0.2,0.3-0.1,0.5,0.1,0.8c0.5,0.5,0.9,1.1,1.3,1.6c0.3,0.4,0.6,0.7,0.3,1.2c-0.2,0.3-0.1,0.6,0.2,0.8
		c0.3,0.3,0.5,0.6,0.6,1.1c0,0.3,0.3,0.4,0.5,0.6c0.3,0.2,0.5,0.3,0.7-0.1c0.2-0.4,0.5-0.9,0.7-1.3c1.2-2.1,4.2-3,6.5-1.7
		c0.2,0.1,0.3,0.2,0.5,0.3c0.3,0.1,0.5,0,0.7-0.2c0.2-0.2,0.3-0.5,0.1-0.7c-0.2-0.3-0.3-0.5-0.4-0.8c-0.1-0.4-0.4-0.6-0.7-0.6
		c-0.9,0-1.8-0.2-2.6,0.3c-0.6,0.3-1.2,0.2-1.8,0.2c-0.2,0-0.5-0.1-0.5-0.4c-0.1-0.3,0.1-0.4,0.4-0.5c0.8-0.4,1.6-0.8,2.5-0.7
		c0.3,0,0.6,0,0.8-0.1C334.2,100.7,334.8,100.5,335.5,100.8 M363.2,86.6c0.2,0.4,0.5,0.5,0.8,0.6c0.4,0.1,0.6,0.4,0.8,0.7
		c0.1,0.2,0.2,0.4,0,0.5c-0.1,0.2-0.3,0.2-0.5,0.2c-0.2-0.1-0.4-0.2-0.6-0.2c-0.3-0.1-0.7-0.2-0.9,0.2c-0.2,0.4-0.5,0.5-0.9,0.3
		c-0.2-0.1-0.4-0.1-0.6,0c-0.6,0.5-1.4,0.6-2.1,1.1c0.5,0,0.9,0.1,1.3,0.1c0.2,0,0.3,0.2,0.4,0.4c0,0.2-0.1,0.4-0.3,0.4
		c-0.4,0.1-0.7,0.2-1.1,0.3c-0.4,0.1-0.5,0.4-0.3,0.8c0.5,1.3,1.2,2.5,2.4,3.4c0.3,0.3,0.7,0.3,1,0c1.7-1.6,3.3-3.2,4.9-5
		c0.4-0.4,0.8-1,1.1-1.4c0.3-0.4-0.6-1.1-0.4-1.7c-0.2-0.1-0.3-0.1-0.4,0c-0.2,0.1-0.5,0.1-0.6-0.1c-0.1-0.2,0-0.4,0.1-0.6
		c0.1-0.2,0.4-0.3,0.1-0.5c-0.1,0-0.2,0-0.2,0.1c-1.2,1.1-1.6,1.1-3.1,0.4C363.8,86.5,363.5,86.4,363.2,86.6 M326.2,87.7
		c-0.1-0.5-0.3-1-0.5-1.5c-0.1-0.4-0.5-0.4-0.8-0.5c-0.3-0.2-0.7-0.3-1.1-0.4c-0.3,0-0.6-0.1-0.6-0.4c0-0.6-0.4-0.7-0.9-0.8
		c-0.6-0.1-0.9-0.5-1.2-1c-0.4-0.7-0.8-0.8-1-0.1c-0.4,0.9-1,1.2-1.9,1.1c-0.2,0-0.5,0-0.7,0.1c-0.5,0.3-1.1,0.4-1.5,0.9
		c-0.3,0.4,0.3,0.7,0.2,1.2c-0.1,1.2,0.7,1.8,1.7,2.1c1.2,0.4,2.4,0.8,3.5,1.4c0.2,0.1,0.4,0.2,0.6,0.1c0.7-0.4,1.4-0.2,2.1-0.3
		C325.2,89.6,326.1,88.7,326.2,87.7 M316.4,100.5c-0.3,0.4-0.8,0.4-1.2,0.7c-0.6,0.4-1.3,0.2-1.8,0.6c-0.5,0.4-1,0.5-1.6,0.5
		c-0.9-0.1-1.4,0.5-1.8,1.2c-0.2,0.4-0.6,0.9-0.5,1.5c0.1,0.5,0.7,0.3,1.1,0.5c1.1,0.7,2.1,0.6,3.2,0c0.5-0.3,1-0.3,1.5-0.2
		c0.6,0.1,0.8,0.4,0.8,1.1c0,0.2-0.2,0.4,0,0.6c0.9,0.2,1.8,0.1,2.7,0.1c0.6-0.1,1-0.5,1.1-1c0.2-1.5-0.3-2.2-1.7-2.9
		c-0.4-0.2-0.7-0.2-1.1,0c-0.5,0.4-1,0.7-1.5,1.2c-0.2,0.2-0.5,0.2-0.7-0.1c-0.2-0.2-0.1-0.4,0.1-0.6c0.2-0.2,0.3-0.3,0.5-0.5
		C316,102.5,317,101.9,316.4,100.5 M348.6,99.8c0.4-0.5,0.2-1,0.5-1.3c0.5-0.6,0.5-1.3,0.4-1.9c-0.1-1.3-0.9-2.1-2.2-2.1
		c-0.3,0-0.6,0-0.9,0.1c-0.8,0.1-1.3,0.4-1.4,1.2c-0.1,0.4-0.1,0.8-0.3,1.2c-0.4,1-0.1,1.4,0.9,1.5
		C346.8,98.5,347.9,98.6,348.6,99.8 M419.4,48.4c0.1-0.8-0.1-1.1-0.7-1.1c-0.3,0-0.5,0-0.8-0.1c-0.5-0.1-0.9-0.4-1-1
		c-0.1-0.7-0.3-0.8-0.8-0.3c-0.2,0.2-0.4,0.6-0.8,0.4c-0.7-0.4-1,0.1-1.3,0.5c-0.3,0.4-0.3,0.9-0.5,1.3c-0.2,0.4-0.1,0.7,0.2,1
		c0.4,0.4,0.8,0.8,1.1,1.3c0.3,0.5,0.4,0.4,0.7-0.1c0.4-0.8,0.4-0.8,1.1-0.2c0.1,0,0.1,0.1,0.3,0.1c-0.1-0.5-0.1-1,0.6-1.1
		c0.1,0,0.2-0.1,0.2-0.2C417.9,48,418.6,48.1,419.4,48.4 M415.3,43.2c1-0.2,1.3,0,1.7-1.2c0.2-0.7,0.4-1.4,1.4-1.5
		c0.2,0,0.3-0.1,0.3-0.3c0-0.2-0.1-0.3-0.3-0.4c-0.2-0.1-0.4-0.1-0.6-0.1c-0.8,0-1.6-0.2-2.2-0.7c-0.3-0.3-1.6,0.1-1.8,0.5
		c0,0.1-0.1,0.2,0,0.3c0.4,1,0.5,2.1,1,3C414.8,43.1,415,43.3,415.3,43.2 M420,35.4c-0.4-0.3-0.7-0.2-1-0.2c-0.7,0-0.9,0.2-0.8,0.9
		c0,0.3,0,0.6,0.1,0.8c0.3,0.5,0.5,0.9,0.6,1.5c0,0.2,0.1,0.3,0.3,0.3c0.2,0,0.3-0.1,0.3-0.3c0-0.3,0-0.5,0.1-0.8
		C419.5,36.7,419.4,36,420,35.4 M309.6,113.3c2.1-1,3.2-1.7,3.5-2.3c-0.9,0.6-1.9,0.7-2.8,1.1C309.8,112.3,309.6,112.6,309.6,113.3
		 M306.7,88.3c-0.8-0.1-1.6-0.3-2.3-0.6c-0.4-0.2-0.8-0.1-1.2,0c-0.1,0-0.2,0.1-0.2,0.2c0,0.2,0.1,0.3,0.3,0.3
		C304.3,88.2,305.5,88.5,306.7,88.3 M314.2,61.4c-0.4-1.1-1.5-2-2.6-2C312.8,60,313.2,61,314.2,61.4 M355.8,55.3
		c-1-0.1-1.1,0-1.7,1.2C355.5,56,355.5,56,355.8,55.3 M374.2,45.7c0.2,0,0.7,0.1,0.8-0.3c0-0.5-0.5-0.3-0.9-0.4
		c-0.1,0-0.3,0-0.4,0.1c-0.2,0-0.4,0.1-0.3,0.4c0,0.2,0.2,0.2,0.3,0.2C373.8,45.7,374,45.7,374.2,45.7 M306,86.6
		c-0.9-0.1-1.6-0.9-2.7-0.6C304.3,86.6,305.1,86.7,306,86.6 M433,44.7c0.9,0.7,1.2,0.7,1.7-0.1C434.2,44.5,433.7,44.5,433,44.7"/>
	<path class="st0" d="M182.3,159.7c0.7,0,1.5,0,2.2,0c0.7,0,1.3-0.3,1.8-0.8c1.1-1.3,1.6-2.7,1.1-4.4c-0.5-1.9-1.7-3.4-3.1-4.7
		c-0.3-0.3-0.8-0.5-1.2-0.5c-1.9,0.1-3.7-0.2-5.6-0.3c-1.9-0.1-3.7-0.9-4.7-2.8c-1.4-2.7,0.2-6.6,3.1-7.6c2.7-1,5.2-0.7,7.7,0.7
		c2.1,1.2,4,2.8,5.9,4.3c0.1,0.1,0.3,0.3,0.4,0.4c0.3,0.2,0.5,0.1,0.6-0.2c0.1-0.6,0.3-1.1,0.3-1.7c0-0.9,0.1-1.7,0.2-2.6
		c0-0.2,0-0.3,0.1-0.4c0.2-0.6,0.7-1,1.3-1.1c0.7,0,1.3,0.3,1.5,1c0.1,0.4,0.2,0.7,0.2,1.1c-0.1,1.5-0.3,3-0.3,4.4
		c0,1.3-0.5,2.6-0.6,3.9c0,0.2-0.1,0.4-0.1,0.7c-0.3,1.4-0.8,1.7-2.2,1.5c-0.6-0.1-1.3-0.3-1.9-0.3c-0.4,0-0.5,0.2-0.3,0.6
		c0.1,0.2,0.2,0.4,0.4,0.6c2.9,3.4,1.6,7.6-0.4,9.8c-0.4,0.4-1.1,0.8-1.2,1.4c-0.1,0.6,0.6,1,0.9,1.5c0.5,0.9,0.8,1.9,0.9,2.9
		c0.1,0.8-0.2,1.7-0.3,2.6c-0.3,1.8-0.6,3.5-0.8,5.3c-0.2,1.6-0.7,3.2-1.2,4.7c-0.3,0.8-1,1.7-1.8,2.2c-0.2,0.1-0.4,0.3-0.7,0.4
		c-0.8,0.4-1.5,0.5-2.3,0c-1.5-0.9-3-1.8-4.4-2.8c-0.6-0.4-1.2-0.7-1.9-0.8c-0.5-0.1-0.9,0.1-1.2,0.5c-0.3,0.5-0.6,1.1-0.8,1.6
		c-0.3,0.8-0.9,1.4-1.5,1.9c-1,0.9-2,0.5-2.3-0.7c-0.1-0.3-0.1-0.7-0.1-1c0.2-1.5,0.4-2.9,0.7-4.4c0.2-0.9,0.2-1.9,0.3-2.8
		c0.4-2,0.7-4.1,1.1-6.2c0.1-0.3,0.1-0.7,0.1-1c0.1-0.8,0.4-1.6,1-2.1c0.5-0.4,1-0.6,1.6-0.4c0.5,0.2,0.8,0.7,0.9,1.2
		c0,0.6,0.1,1.2,0,1.7c-0.4,2.3-0.7,4.5-1.2,6.7c-0.2,0.6,0,0.8,0.5,0.8c1.1-0.1,2,0.3,2.9,0.8c1.3,0.7,2.6,1.5,3.8,2.4
		c1.6,1.1,2.2,0.9,2.5-1c0.3-2.1,0.7-4.1,1-6.2c0.1-1.1,0.4-2.2,0.5-3.4c0.1-1,0.2-1.9,0-2.8c-0.2-0.8-0.6-1.1-1.3-0.7
		c-1.5,0.8-3.1,0.5-4.6,0.4c-0.6,0-1.2-0.2-1.8-0.4c-2.2-0.6-4-2.9-4.2-5.2c-0.1-1.3,0.2-2.4,0.7-3.5c0.6-1.3,1.8-2,3.1-2.4
		c0.7-0.2,1.4-0.2,2.1,0.1c1.1,0.4,1.9,1.1,2.6,2c0.9,1.1,1.5,2.3,2,3.6c0.1,0.3,0.5,0.8,0.1,1c-0.4,0.3-0.7-0.2-0.9-0.5
		c-0.9-0.9-1.9-1.5-3-2.1c-0.7-0.4-1.5-0.4-2.2-0.3c-0.9,0.1-1.4,0.8-1.1,1.7c0.3,1.1,1.3,1.8,2.6,1.9
		C180.8,159.8,181.6,159.7,182.3,159.7L182.3,159.7z M179,141.2c-0.8-0.1-1.7,0.2-2.5,0.7c-0.7,0.3-1,0.9-1,1.7
		c0,0.8,0.4,1.3,1.1,1.6c0.4,0.2,0.8,0.3,1.3,0.3c0.9,0,1.9,0.2,2.8,0.3c0.8,0.1,1.6,0.2,2.5,0.2c0.7,0,1.4,0,2,0.2
		c0.6,0.1,1.3,0.1,1.9,0c0.4,0,0.5-0.3,0.2-0.6c-0.1-0.1-0.2-0.2-0.4-0.3c-1.4-0.9-2.7-1.9-4.1-2.8
		C181.9,141.8,180.6,141.2,179,141.2"/>
	<path class="st0" d="M139.7,176.2c0.1,2-0.2,3.7-0.9,5.4c-0.7,1.6-1.7,2.8-3.6,2.9c-0.4,0-0.7,0.1-0.7,0.6c0,0.4,0.4,0.6,0.7,0.6
		c0.7,0,1.4,0.1,2,0.2c0.6,0.1,1,0.3,1.2,0.9c0.2,0.7,0.2,1.4-0.4,1.9c-0.4,0.4-0.9,0.6-1.6,0.6c-0.3,0-0.6,0-0.9,0
		c-0.2,0-0.5,0-0.5,0.3c0,0.2,0.2,0.3,0.4,0.4c1.4,0.7,1.9,1.8,1.7,3.3c0,0.6-0.3,1.1-0.6,1.5c-1.1,1.4-2.3,2.4-4.2,2.1
		c-1.3-0.2-2.1-1-2.6-2.2c-0.4-1-0.7-1.2-1.7-1c-2.1,0.5-4.1,1.2-6.3,1.5c-0.9,0.1-1.8,0.3-2.7,0.3c-1.3,0-2.6-0.3-3.7-1.1
		c-1.3-0.9-1.6-2-1.3-3.5c0.4-2,1.7-3.2,3.3-3.9c1.1-0.5,2.5-0.7,3.8-0.7c3-0.1,6-0.2,9-0.4c0.6,0,1-0.2,1.4-0.7
		c0.4-0.5,0.9-1,1.5-1.1c0.4-0.1,0.6-0.4,0.5-0.8c-0.3-1.3,0.1-2.2,1.4-2.7c0.7-0.3,0.8-1,0.9-1.5c0.3-3.4,0.2-6.7-1.5-9.9
		c-1.2-2.3-5.4-2.6-6.7-0.3c-1.2,2-2.4,4.1-3.2,6.3c0,0.1-0.1,0.1-0.1,0.2c0,0.4-0.2,0.9,0.1,1.1c0.4,0.3,0.6-0.3,0.9-0.5
		c0.7-0.6,1.5-1,2.3-1.5c1.9-1.1,4.5,0.4,5.1,2.2c0.3,1,0.3,2,0,2.9c-0.2,0.8-1,1.3-1.7,1.3c-0.6,0-1.2-0.6-1.5-1.4
		c0-0.1,0-0.2-0.1-0.3c-0.2-0.8-0.7-1-1.4-0.6c-0.9,0.5-1.6,1.2-2.2,2c-0.7,0.9-1.4,1.8-2.2,2.7c-0.8,1-1.7,1.7-3.1,1.8
		c-1.1,0.1-1.7-0.3-1.9-1.4c-0.1-0.7-0.1-1.4,0.1-2.2c0.7-3,1.5-5.9,2.6-8.7c0.4-1.1,1-2.1,1.6-3.2c0.7-1.2,1.4-2.4,2.3-3.5
		c1.2-1.4,2.6-2.3,4.3-2.9c0.5-0.2,1-0.2,1.5-0.1c2.8,0.5,5,1.9,6.3,4.4c0.9,1.8,1.6,3.6,1.8,5.6
		C139.5,174.1,139.9,175.2,139.7,176.2 M129,189.5c-1.4,0.3-2.6,0.2-3.8,0.2c-1.9,0-3.7,0.3-5.6,0.2c-0.6,0-1.1,0.2-1.5,0.7
		c-0.4,0.4-0.3,0.8,0.3,0.9c0.9,0.1,1.9,0.1,2.9,0c1.2-0.2,2.4-0.2,3.6-0.6c1.1-0.3,2.1-0.6,3.2-0.7
		C128.3,190.2,128.7,190.1,129,189.5"/>
	<path class="st0" d="M89.8,179.4c0-1.6,0.2-3,0.5-4.4c0.2-1.1,0.6-2.1,0.7-3.2c0-0.8,0.6-1.4,0.7-2.2c0.2-1.3,0.2-1.4-0.9-2.1
		c-0.9-0.6-1.6-1.3-2.2-2.1c-0.7-1.1-0.8-2.2-0.4-3.4c0.6-2,1.8-3.5,3.6-4.5c1.8-0.9,3.5-0.4,5.1,0.6c0.8,0.5,1.6,1,2.1,1.8
		c0.5,0.8,0.5,1.4-0.1,2.2c-0.6,0.7-1.1,0.9-2,0.5c-0.5-0.2-0.9-0.4-1.3-0.7c-0.2-0.1-0.4-0.2-0.6-0.3c-1-0.5-2.2-0.4-2.7,0.2
		c-0.5,0.6-0.5,2.2,0.1,3c0.6,0.7,1.1,1.5,1.9,2.1c0.3,0.2,0.6,0.5,0.9,0.7c0.2,0.2,0.4,0.4,0.4,0.7c-0.1,0.9,0.1,1.9-0.4,2.8
		c-0.2,0.4-0.2,0.9-0.3,1.3c-0.5,1.8-0.7,3.6-1.2,5.3c-0.2,0.9-0.1,1.8,0.2,2.7c0.4,1.3,1.8,1.9,3.3,1.6c2.3-0.4,3.9-1.6,5-3.6
		c0.7-1.3,1.4-2.5,1.9-3.9c0.2-0.7,0.1-0.8-0.6-0.9c-0.7,0-1.4,0-2.2,0.1c-1.2,0.2-2.4,0.1-3.5,0.1c-1,0-1.7-0.6-1.9-1.5
		c-0.2-0.9,0.4-1.9,1.3-2.3c0.5-0.2,1-0.3,1.6-0.3c1.8,0,3.6-0.3,5.4-0.2c1.1,0,1.2,0,1.5-1.1c0.1-0.2,0.2-0.4,0.2-0.5
		c0-1.7,0.8-3.2,1.1-4.8c0.4-1.8,1.3-3.3,2.5-4.7c1.2-1.4,2.7-1.9,4.5-1.7c1.4,0.2,3.1,1.9,3.1,3.3c0.1,1-0.4,1.8-1,2.6
		c-0.2,0.3-0.6,0.2-0.8-0.2c0-0.1-0.1-0.1-0.1-0.2c-0.1-0.9-0.5-1.5-1.4-1.6c-1-0.1-2,0.1-2.6,1.1c-0.1,0.3-0.3,0.5-0.4,0.8
		c-0.5,2-1,4-1.5,6c-0.1,0.5,0,0.7,0.6,0.6c0.6-0.1,1.2-0.2,1.8-0.5c0.3-0.2,0.6-0.3,0.9-0.4c0.2-0.1,0.4-0.2,0.6,0
		c0.2,0.2,0.1,0.4,0,0.6c-0.6,1.1-1.2,2.1-2.2,2.9c-0.7,0.5-1.3,1.1-2.2,1.2c-0.5,0.1-0.7,0.6-0.8,1c-0.3,0.9-0.6,1.8-1,2.7
		c-1,2.5-2.2,4.8-4.1,6.6c-1.2,1.1-2.5,2-4,2.6c-0.2,0.1-0.4,0.2-0.7,0.2c-1.5,0.1-3,0.3-4.4-0.1c-1.7-0.6-3.1-1.6-3.6-3.5
		C89.8,181.3,89.7,180.3,89.8,179.4"/>
	<path class="st0" d="M322.3,161.4c0.1-2.4-0.1-4.3,0.2-6.1c0.2-1,0.6-2,1.2-2.8c0.5-0.8,1.4-1.2,2.4-1.1c2.1,0.1,3.9,2.4,3.3,4.5
		c-0.1,0.3-0.1,0.7-0.5,0.7c-0.3,0-0.4-0.3-0.5-0.5c-0.1-0.2-0.2-0.4-0.3-0.6c-0.4-0.5-1-0.6-1.7-0.5c-0.6,0.1-0.9,0.6-1,1.1
		c-0.1,0.7-0.2,1.4-0.2,2.2c0,2.5,0,5,0,7.5c0,2.3-0.4,4.5-0.8,6.7c-0.1,0.8-0.5,1.5-0.9,2.2c-1.2,2.1-3.8,2.7-5.8,1.3
		c-1.4-1-2.4-2.3-3-3.9c-0.8-2.1-1.5-4.3-2.3-6.5c-0.4-1-0.8-2-1.5-2.8c-1-1.3-2.4-1.4-3.5-0.1c-0.9,1-1.2,2.3-1.5,3.5
		c-0.2,0.5,0.2,0.8,0.6,0.9c0.7,0.3,1.3,0.6,1.8,1.2c1.1,1.4,1.7,2.9,1,4.6c-0.5,1.2-1.1,2.4-1.8,3.4c-0.8,1.1-1.8,1.3-3,0.6
		c-1.4-0.7-2.4-2.6-2.2-4.2c0.2-1.9,0.4-3.7,0.5-5.6c0.2-2.4,1-4.6,2.3-6.6c0.4-0.6,0.4-0.6-0.3-0.9c-2.4-0.7-4.1-3.2-3.8-5.6
		c0.1-1,0.6-1.6,1.6-1.9c0.6-0.2,1.2-0.3,1.8-0.3c2.2-0.1,4.4,0.1,6.6-0.2c0.8-0.1,1.6,0.1,2.2,0.7c0.8,0.9,0.7,1.9-0.4,2.4
		c-0.7,0.3-1.3,0.5-2.1,0.5c-1.6,0-3.3,0-4.9,0c-0.5,0-1,0-1.5,0.2c-0.3,0.1-0.4,0.4-0.3,0.7c0.3,0.9,2.1,2.2,3.1,2.2
		c0.1,0,0.3,0,0.4-0.1c1.3-0.7,2.5-0.2,3.5,0.6c1.6,1.3,2.8,3,3.7,4.8c0.9,1.7,1.3,3.6,2,5.5c0.3,0.9,0.7,1.9,1.3,2.7
		c0.7,1,2.1,1.3,3.1,0.6c0.3-0.2,0.5-0.6,0.6-0.9c0.5-1.2,0.5-2.5,0.6-3.7C322.3,165.4,322.4,163.1,322.3,161.4 M305.1,172
		c0,0.2,0,0.6,0.1,0.8c0.1,0.2,0.3,0.3,0.5,0.1c0.3-0.3,0.7-1.5,0.5-1.9c-0.1-0.2-0.2-0.4-0.5-0.4c-0.3,0-0.4,0.2-0.5,0.4
		C305.2,171.3,305.2,171.6,305.1,172"/>
	<path class="st0" d="M267,157.7c0.3-1.1,0.6-2,1.1-2.9c0.2-0.4,0.5-0.9,0.9-1.2c1.1-1,2.3-1.2,3.5-0.4c1.7,1.1,2.8,2.6,3.6,4.5
		c0.8,1.9,0.9,3.9,0.7,6c-0.2,1.6-0.3,3.3-0.4,4.9c-0.2,2.2-0.2,4.5-0.6,6.7c-0.1,0.8-0.4,1.5-0.7,2.2c-0.8,1.6-2.8,1.6-3.8,0.3
		c-0.7-0.8-1.1-1.8-0.9-2.9c0.4-1.9,1.1-3.8,1.9-5.6c0.1-0.2,0.2-0.4,0.4-0.3c0.3,0.1,0.2,0.3,0.2,0.6c-0.1,1.2-0.3,2.5-0.4,3.7
		c0,0.4-0.2,0.8,0.2,1.3c0.1-1,0.2-1.9,0.3-2.7c0.2-2.1,0.4-4.2,0.6-6.2c0.1-1.4,0.2-2.8,0.3-4.2c0.1-1.3-0.4-2.6-0.9-3.7
		c-0.1-0.2-0.3-0.4-0.5-0.6c-0.8-0.9-1.6-0.8-2,0.3c-0.5,1.3-1,2.7-1.4,4.1c-0.3,1.1-0.6,2.3-1,3.4c-0.2,0.6-0.4,1.1-0.8,1.6
		c-0.5,0.6-1.1,0.6-1.6-0.1c-0.2-0.3-0.3-0.6-0.3-0.9c-0.1-0.9-0.3-1.8-0.3-2.7c0-2.1-0.9-3.9-2.1-5.5c-0.7-0.8-1.5-0.7-1.9,0.4
		c-0.2,0.7-0.5,1.5-0.5,2.2c0,2.3-0.4,4.6-0.5,6.9c0,0.3,0,0.6,0,0.9c0,0.4,0.2,0.7,0.6,0.8c3.2,1,4.4,4,2.9,6.9
		c-0.5,0.9-1.1,1.8-1.7,2.7c-0.9,1.2-2.8,1.5-3.9,0.5c-0.7-0.6-1.1-1.3-1.3-2.2c-0.3-1.6-0.2-3.2,0-4.8c0.1-0.6,0.1-1.1,0.1-1.7
		c0-1.7,0.2-3.4,0.4-5.1c0.1-0.6,0.1-1.3,0.1-1.9c0-1.6,0.2-3.1,0.5-4.7c0.3-1.6,1.1-2.9,2.1-4.1c1-1.2,2.3-1.3,3.6-0.4
		c1.3,0.9,2.2,2.1,2.9,3.5C266.5,157.2,266.5,157.5,267,157.7 M259.6,173.8c0,0.3,0,0.4,0,0.5c0,0.2,0,0.5,0.3,0.6
		c0.3,0.1,0.4-0.2,0.5-0.3c0.3-0.4,0.4-0.9,0.5-1.4c0-0.3-0.1-0.6-0.4-0.7c-0.4-0.1-0.6,0.1-0.7,0.4
		C259.7,173.2,259.6,173.6,259.6,173.8"/>
	<path class="st0" d="M206.4,169.8c-0.8,0-1.7,0-2.5,0c-1,0-1.7-0.6-1.8-1.5c-0.1-1,0.4-1.6,1.5-2c1.3-0.5,2.6-0.3,4-0.4
		c0.3,0,0.7,0,1,0c1.7,0,1.8-0.1,2-1.8c0.2-1.4,0.3-2.9,0.5-4.3c0.3-1.9,1-3.7,2.5-5c1.3-1.1,3.1-1.1,4.5-0.1
		c1.3,0.9,1.8,2.7,1.1,4.2c-0.1,0.3-0.2,0.7-0.5,0.7c-0.4,0-0.4-0.4-0.5-0.6c-0.3-0.8-0.9-1.3-1.8-1.2c-0.7,0-1.2,0.3-1.6,0.9
		c-0.5,0.9-0.5,2-0.7,3c-0.2,1-0.3,2-0.4,3.1c-0.1,0.8,0,0.9,0.9,0.9c0.7-0.1,1.2-0.4,1.8-0.7c0.2-0.1,0.4-0.2,0.6-0.1
		c0.2,0.2,0.2,0.4,0.1,0.6c-0.7,1.6-1.5,3.1-3.3,3.7c-0.6,0.2-0.7,0.6-0.8,1.1c-0.3,1.8-0.8,3.6-1.5,5.3c-0.8,1.7-1.8,3.2-3.2,4.4
		c-2,1.8-4.4,1.9-6.8,1.3c-1.3-0.4-2.3-1.4-3-2.7c-1.2-2.2-1-4.6-0.8-6.9c0.2-2,0.5-4.1,0.7-6.1c0.1-0.5-0.2-0.8-0.5-1
		c-0.7-0.4-1.2-1-1.9-1.5c-1.1-0.9-1.4-2.2-1.3-3.5c0.1-1.5,0.6-2.8,1.7-3.9c1.1-1.1,2.3-1.3,3.7-1c1.5,0.3,2.6,1.2,3.7,2.2
		c0.5,0.5,0.6,1.5,0.3,2.1c-0.3,0.7-1,0.9-1.7,0.6c-0.7-0.3-1.3-0.7-1.9-1c-0.2-0.1-0.5-0.3-0.7-0.3c-1-0.2-1.6,0.2-1.7,1.3
		c-0.1,1.1,0.3,1.9,1,2.7c0.6,0.7,1.4,1.2,2.1,1.8c0.4,0.3,0.6,0.7,0.6,1.3c0,1-0.2,2-0.3,3c-0.2,1.2-0.3,2.5-0.5,3.7
		c-0.2,1.2,0,2.4,0.2,3.6c0.3,1.4,1.5,2.1,3,1.9c1.8-0.2,3.1-1.2,3.9-2.8c0.7-1.4,1.3-2.8,1.6-4.3c0.1-0.6,0.1-0.7-0.6-0.7
		C208.1,169.8,207.3,169.8,206.4,169.8L206.4,169.8z"/>
	<path class="st0" d="M288.4,141c-0.1,1-0.1,2.1-0.2,3.3c-0.1,0.8,0.2,1.3,0.9,1.5c0.2,0,0.4,0.1,0.5,0.3c0.3,0.2,0.3,0.5,0,0.7
		c-0.1,0.1-0.3,0.2-0.5,0.3c-0.9,0.5-1.7,1-1.9,2.1c-0.1,0.4-0.3,0.7-0.6,0.9c-0.7,0.3-0.8,0.9-0.9,1.5c-0.2,0.9,0,1.8,0.3,2.7
		c0.3,0.9,1,1.4,2,1.6c0.3,0.1,0.7,0,1,0c1,0,1.1-0.1,1.2-1.1c0-0.7,0.2-1.4,0.6-2.1c0.7-1.4,2.5-1.9,3.8-1.1
		c1.1,0.7,1.9,1.7,2.3,2.9c0.5,1.7-0.1,3.1-1.5,4.1c-1.1,0.7-1.2,0.8-0.6,2c0.6,1.5,0.8,3.1,0.8,4.7c0,2.8-0.1,5.6-0.4,8.3
		c-0.1,0.9-0.6,1.7-0.4,2.7c0,0.2-0.1,0.3-0.2,0.3c-0.6-0.1-0.9,0.5-1.4,0.7c-0.9,0.5-1.9,0.4-2.7-0.3c-0.8-0.7-1.5-1.4-2.2-2.1
		c-0.2-0.2-0.4-0.5-0.7-0.6c-0.8-0.6-1.4-0.5-1.8,0.4c-0.4,0.8-0.6,1.7-1.2,2.5c-0.3,0.4-0.7,0.9-1.3,0.8c-0.7-0.1-1-0.6-1.2-1.3
		c-0.3-1.2,0-2.4,0-3.6c0-1.2,0.1-2.3,0.1-3.5c0-1,0.1-2,0.2-3c0.1-0.4,0.1-0.8,0.1-1.3c0-0.6-0.2-1-0.8-1.2
		c-0.6-0.2-0.7-0.6-0.6-1.1c0.2-0.6,0.3-1.3,0.6-1.8c0.5-0.7,1.1-0.9,1.9-0.6c0.7,0.3,1.2,1,1.4,1.7c0.4,1.4,0.7,2.9,0.4,4.4
		c-0.1,0.9-0.1,1.8-0.1,2.7c0,0.4,0.1,0.7,0.6,0.7c1.5,0,2.5,0.9,3.5,1.8c0.5,0.5,1,1,1.6,1.5c0.7,0.6,1,0.5,1.3-0.4
		c0.1-0.4,0.2-0.8,0.2-1.1c0-2,0.3-3.9,0.1-5.9c0-0.4,0.1-0.8,0.1-1.1c0.1-1.7-0.4-3.2-1.1-4.6c-0.2-0.6-0.7-0.7-1.2-0.6
		c-1.5,0.3-2.8-0.2-4-0.8c-1.7-0.9-2.7-2.3-3.1-4.1c-0.4-1.6-0.3-3.2,0.2-4.7c0.3-1,0.8-1.9,1.5-2.6c0.4-0.4,0.6-0.8,0.6-1.4
		c0-2.1,0.1-4.2,0.2-6.3c0-0.6,0.6-1.4,1.2-1.6c0.3-0.1,0.5-0.1,0.8,0.1c0.6,0.4,1,0.9,1,1.6C288.4,140.1,288.4,140.5,288.4,141"/>
	<path class="st0" d="M137.9,155.8c1.4,0,2.7,0,4.1,0c1.9-0.1,3.5,0.7,4.8,1.8c1.6,1.4,2.9,3,3.6,5c0.3,1,0.4,2,0.4,3
		c0,1.8-0.4,3.5-0.7,5.2c-0.3,1.9-0.7,3.8-1,5.7c-0.3,1.4-0.4,2.8-0.8,4.1c-0.1,0.3-0.1,0.7-0.1,1c0,0.7-0.2,1.1-1,1.4
		c-0.9,0.3-1.6,0.8-2.6,0.9c-1.5,0.1-3.1-2.2-2.7-3.5c0.7-2.3,1.7-4.4,2.9-6.5c0.2-0.3,0.3-0.7,0.8-0.7c0.6,0,0.7-0.4,0.7-0.8
		c0.2-1.3,0.3-2.6,0.7-3.8c0.4-1.4,0.4-2.9,0.2-4.3c-0.4-2.5-2.8-4.6-5.1-4.6c-3.1-0.1-6.3,0.2-9.4,0.2c-2.2,0-4.4,0-6.6,0.2
		c-1.1,0.1-1.2,0.2-1.1,1.2c0,0.4,0.1,0.8,0,1.3c0,0.5-0.3,0.7-0.8,0.4c-0.9-0.6-1.8-1.2-2.4-2.1c-1-1.4-0.4-3.4,1.2-4.2
		c1.1-0.5,2.2-0.7,3.3-0.7C130.3,156.1,134.1,155.7,137.9,155.8 M144.4,177.3c0.2,0.7,0.1,1.5,0.2,2.2c0,0.2,0.1,0.5,0.4,0.5
		c0.3,0,0.4-0.3,0.3-0.5c-0.1-0.4,0-0.8,0-1.2c0.1-1.1,0.3-2.2,0.6-3.2c0.1-0.2,0.2-0.5-0.2-0.6c-0.2-0.1-0.3,0.2-0.4,0.4
		c-0.2,0.7-0.5,1.4-0.9,1.9C144.4,176.8,144.4,177,144.4,177.3"/>
	<path class="st0" d="M72.6,177.1c0.3-0.2,0.5-0.5,0.6-0.9c0.3-2.4,1.3-4.5,1.8-6.8c0.5-2.3,0.1-4.6-1.6-6.4c-0.6-0.6-1.4-1-2.2-1.2
		c-0.6-0.2-1.2-0.5-1.6-1c-0.6-0.7-0.6-1.5,0-2.2c0.4-0.6,1-1,1.7-1.1c0.2,0,0.5-0.1,0.7-0.1c3.7,0.1,7.3-0.3,11-0.2
		c0.5,0,1.2-0.3,1.4,0.4c0.2,0.5-0.5,0.8-0.8,1.1c-1.1,0.9-2.2,1.7-3.6,2.2c-0.7,0.2-1.3,0.3-2,0.5c-0.6,0.2-0.6,0.2-0.3,0.8
		c1.5,2.5,1.9,5.1,1,7.9c-0.6,1.8-1,3.6-1.4,5.4c-0.8,3-1.6,6-2.9,8.9c-0.6,1.3-1.7,2.3-3,2.8c-2.5,0.9-5.3-0.7-5.6-3.2
		c-0.2-1.5,0-2.9,0.3-4.3c0.3-1.4,0.8-2.7,1.7-3.8c0.6-0.7,1.3-1.1,2.2-1.4c1.3-0.4,2.4,0.3,2.6,1.7
		C72.6,176.5,72.6,176.8,72.6,177.1c-0.4,0.3-0.7,0.8-1.3,1.1c-1.3,0.7-2,2.5-1.7,3.9c0.1,0.5,0.6,0.7,1.1,0.3
		c0.3-0.2,0.4-0.6,0.5-0.9c0.3-0.9,0.6-1.8,1-2.7C72.5,178.3,72.6,177.8,72.6,177.1"/>
	<path class="st0" d="M225.6,181.5c0.1,0.5-0.1,0.9-0.2,1.4c-0.3,1.2-0.4,2.5-0.4,3.7c-0.1,2.5-1.2,4.3-3.3,5.5
		c-0.6,0.3-1.2,0.4-1.9,0.1c-1.7-0.8-3.5-1.5-5.2-2.4c-1.3-0.6-1.9-0.5-2.7,0.7c-0.5,0.7-0.9,1.3-1.5,1.8c-0.5,0.4-1.1,0.7-1.8,0.3
		c-0.6-0.4-0.9-1-0.8-1.8c0.5-2.5,1-5.1,1.5-7.6c0.1-0.5,0.3-0.9,0.7-1.2c0.5-0.4,1-0.6,1.7-0.3c0.6,0.3,0.8,0.9,0.8,1.5
		c0,0.7-0.2,1.4-0.4,2c-0.2,0.7-0.1,0.9,0.6,0.8c1.8,0,3.3,0.7,4.9,1.5c0.7,0.4,1.4,0.7,2.1,1.1c0.8,0.4,1.2,0.2,1.6-0.5
		c0.2-0.4,0.3-0.9,0.3-1.3c0.3-2.3,0.5-4.6,0.7-6.9c0.3-2.7,0.6-5.4,0.9-8.1c0.3-3,0.6-6,1-9c0.2-1.8,0.2-3.7,0.9-5.4
		c0.3-0.8,0.7-1.5,1.1-2.2c0.9-1.5,2.3-2.1,3.9-1.7c1.6,0.4,2.6,1.5,2.8,3.3c0.1,0.6-0.1,1.2-0.4,1.7c-0.1,0.2-0.2,0.3-0.4,0.3
		c-0.3,0-0.4-0.2-0.4-0.4c-0.2-0.6-0.5-1.1-1.1-1.3c-1-0.3-1.8,0-2.3,0.9c-0.1,0.3-0.3,0.6-0.3,0.9c-0.1,1.9-0.7,3.8-0.6,5.7
		c0.1,1.2-0.5,2.2-0.5,3.4c0,0.7-0.1,1.4-0.2,2c-0.3,2.5-0.5,5-0.8,7.5C225.9,179,225.6,180.2,225.6,181.5"/>
	<path class="st0" d="M163.6,176.5c0.1,1.9-0.4,3.5-1.3,5c-0.2,0.4-0.3,0.7-0.3,1.2c0,0.4-0.3,0.8-0.7,0.7c-1-0.2-1.9,0-2.8,0
		c-2.1,0.1-3.3-1.7-3.5-3.1c-0.1-0.5-0.1-1.1-0.3-1.6c-0.2-0.8-0.2-1.6,0-2.4c0.1-0.2,0.1-0.4,0.1-0.7c0-2.9,0.7-5.7,1.2-8.5
		c0.4-2.6,1.2-5.1,2.5-7.3c1-1.8,2.4-3.4,4.4-4.2c1.5-0.7,2.6-0.4,3.9,0.7c1.4,1.2,2,2.7,2.5,4.4c0.1,0.2,0.1,0.4-0.1,0.5
		c-0.2,0.1-0.4,0-0.5-0.1c-0.6-0.5-1.3-1-2-1.4c-0.3-0.1-0.5-0.3-0.8-0.4c-1.2-0.4-2.2-0.2-3.2,0.7c-0.8,0.8-1.4,1.7-1.8,2.7
		c-0.8,1.8-1.2,3.6-1.4,5.5c-0.1,0.6-0.2,1.1-0.4,1.7c-0.3,0.8-0.1,1.1,0.7,1.3c1.4,0.4,2.6,1.2,3.4,2.5
		C163.5,174.7,163.6,175.6,163.6,176.5 M160.1,177c0-0.2,0-0.6-0.1-1c-0.2-0.6-0.6-0.7-1.2-0.7c-0.5,0-0.7,0.3-0.7,0.8
		c0,0.4-0.1,0.7-0.4,0.9c-0.2,0.2-0.2,0.5,0,0.7c0.1,0.2,0.2,0.5,0.4,0.7c0.4,0.8,1.2,0.9,1.7,0.2
		C160.1,178.2,160.1,177.7,160.1,177"/>
	<path class="st0" d="M227.3,143.5c0.2-1,0.3-2.1,0.2-3.1c0-0.6,0-1.2,0.1-1.8c0.2-0.8,0.9-1.3,1.6-1.2c0.7,0.1,1.2,0.6,1.3,1.5
		c0.1,1.8,0.1,3.6-0.2,5.4c-0.1,1-0.2,2-0.3,3.1c0,0.2,0,0.3,0,0.5c-0.2,1.9-0.8,2.3-2.6,1.8c-0.8-0.2-1.6-0.3-2.4-0.4
		c-1.9-0.1-3.8-0.6-5.7-0.6c-0.5,0-0.9,0-1.4-0.1c-1-0.3-2-0.2-2.9-0.3c-1.8-0.1-3.4-0.7-4.4-2.4c-1.4-2.3-0.7-4.8,0.7-6.5
		c0.8-1,2-1.5,3.3-1.7c2.6-0.4,4.8,0.3,6.9,1.7c1.8,1.2,3.5,2.4,5.1,3.9C226.8,143.3,226.9,143.5,227.3,143.5 M224.8,145.4
		c-0.4-0.3-0.8-0.7-1.2-1c-1.3-0.9-2.7-1.8-4.1-2.7c-1.2-0.8-2.5-1-3.9-0.9c-0.6,0-1.2,0.2-1.7,0.6c-1.1,0.8-1,2.3,0.1,2.9
		c0.3,0.2,0.7,0.3,1.1,0.4c0.8,0.1,1.5,0.1,2.3,0.2c1.4,0.2,2.8,0.1,4.2,0.4C222.6,145.4,223.6,145.5,224.8,145.4"/>
	<path class="st0" d="M64.1,192.5c-0.2,0-0.4,0-0.5,0c-0.4,0-0.5-0.2-0.4-0.6c0,0,0-0.1,0-0.1c1-1.4,2-2.9,3.7-3.7
		c1.7-0.9,3.3,0.7,3,2.2c-0.4,1.8-0.9,3.5-1.3,5.2c-0.3,1.2-0.3,1.1,0.7,1.8c0.8,0.5,1.4,1.1,2.2,1.7c0.9,0.7,1.2,0.5,1.5-0.6
		c0.6-2.6,1.5-5.1,2.9-7.3c1-1.6,2.3-3,3.8-4.1c0.2-0.1,0.4-0.3,0.6-0.1c0.3,0.2,0.2,0.5,0.1,0.7c-0.5,1.1-0.9,2.2-1.3,3.3
		c-0.7,2.3-1.4,4.6-2.1,6.9c-0.3,1.2-0.7,2.5-1.3,3.7c-0.6,1.3-1.8,2.1-3.1,2.5c-0.4,0.1-0.7,0.1-1.1-0.1c-0.7-0.4-1.5-0.8-2.1-1.4
		c-0.2-0.2-0.4-0.4-0.6-0.5c-1.2-0.9-1.7-0.7-2.1,0.6c-0.3,1-1.1,1.4-1.9,1.8c-0.5,0.2-1.3-0.2-1.6-0.8c-0.2-0.5-0.4-0.9-0.2-1.4
		c0.3-0.8,0.4-1.7,0.6-2.6c0.2-1.3,0.8-2.5,1-3.8c0.1-0.7,0.4-1.5,0.5-2.2C65.2,192.6,65,192.5,64.1,192.5"/>
	<path class="st0" d="M251.5,173.9c0.4,1.8-0.5,3.4-1,5.1c-0.1,0.2-0.2,0.3-0.4,0.4c-1.6,0.6-2.7,0.2-3.6-1.2
		c-0.8-1.2-1.1-2.7-1.7-4c-0.1-0.1-0.1-0.3,0-0.4c0.2-0.2,0.4-0.1,0.5,0c0.5,0.3,1,0.7,1.5,1.1c0.2,0.2,0.5,0.4,0.7,0.5
		c0.4,0.2,0.7,0.1,0.7-0.4c0-1.1,0.2-2.2-0.1-3.3c-0.2-0.6-0.2-1.2-0.3-1.8c-0.3-2-1.1-3.8-2.5-5.3c-0.6-0.6-1.3-0.9-2.1-1
		c-1.2-0.2-2.1,0.3-2.7,1.3c-1.1,1.8-1.8,3.8-2.2,5.9c-0.3,1.8-0.7,3.6-1,5.4c-0.1,0.6-0.2,1.1-0.2,1.7c-0.1,0.7-0.3,1.3-0.8,1.7
		c-0.7,0.8-1.6,0.7-2.2-0.2c-0.4-0.6-0.6-1.3-0.3-2c0.3-0.7,0.3-1.5,0.4-2.2c0.2-2.4,0.7-4.7,1.4-6.9c0.7-2.5,1.6-4.8,3.5-6.7
		c1.8-1.8,4-2.2,6.2-1c1.4,0.8,2.5,1.8,3.4,3.2c1,1.6,1.9,3.4,2.2,5.4C251.2,170.6,251.8,172.1,251.5,173.9"/>
	<path class="st0" d="M327.6,142.6c0,1.1,0,2.3,0,3.4c-0.1,1.3-0.5,1.7-1.9,1.4c-2.9-0.5-5.9-0.8-8.8-1c-1.4-0.1-2.9,0-4.3-0.7
		c-1.7-0.9-2.9-2.2-2.9-4.2c-0.1-2.5,1.8-4.2,4.4-4.5c1.5-0.1,2.9,0.3,4.2,1c0.5,0.3,1.1,0.6,1.6,0.9c0.6,0.3,0.8,0.2,0.7-0.5
		c0-0.5-0.1-1,0.1-1.5c0.4-1.1,1.2-1.3,2-0.5c0.6,0.5,0.7,1.2,0.6,2c-0.1,0.5-0.1,1-0.1,1.5c-0.1,1,0.4,1.7,1.1,2.2
		c0.4,0.3,0.6,0.2,0.7-0.3c0.1-0.7,0.1-1.4-0.1-2.2c-0.1-0.5-0.1-1,0-1.5c0.1-0.5,0.4-0.9,1-1c0.6-0.1,1,0.1,1.4,0.6
		c0.3,0.4,0.3,0.9,0.4,1.4C327.7,140.3,327.6,141.5,327.6,142.6 M321.4,143.8c-1-1.6-1.2-1.8-2.6-2.5c-0.6-0.3-1.2-0.5-1.8-0.8
		c-1.1-0.6-2.3-0.5-3.5-0.1c-0.5,0.1-1,0.4-1,1.1c0,0.6,0.3,1.2,0.9,1.5c0.3,0.2,0.7,0.3,1.1,0.3c1.7,0.1,3.4,0.4,5.1,0.5
		C320.2,143.7,320.8,143.8,321.4,143.8"/>
	<path class="st0" d="M317.4,180.6c0.7,0.3,1.3,0.4,1.9,0.7c1.3,0.7,1.9,1.9,1.7,3.3c-0.2,1.3-1.2,2.5-2.6,2.7
		c-0.7,0.1-1.4,0.2-2.1,0c-1.3-0.2-2.1-1.3-2.2-2.7c-0.1-1.6,0-3.2,0.3-4.8c0.4-2.1,2-3.2,4.1-2.6c0.1,0,0.2,0,0.3,0.1
		c1.2,0.6,2.4,0.8,3.4-0.3c0.2-0.2,0.5-0.2,0.8-0.2c1.6-0.1,3.7,1.2,4.4,2.6c0.3,0.6,0.2,1.2,0.1,1.8c-0.1,1.3-0.1,2.6-0.1,3.9
		c0,0.3,0,0.5-0.1,0.8c-0.3,0.6-0.9,1-1.4,1c-0.7-0.1-1.1-0.6-1.2-1.2c-0.1-0.2-0.1-0.5-0.1-0.8c0.2-1.2,0.1-2.5,0.2-3.8
		c0.1-1-0.5-1.5-1.5-1.1c-0.3,0.1-0.6,0.4-0.9,0.6c-0.7,0.5-1.4,0.7-2.1,0.3c-0.5-0.2-0.9-0.3-1.4-0.5
		C318.4,180.4,318,180.2,317.4,180.6"/>
	<path class="st0" d="M247.5,153.1c0.6,0,1.3,0,1.9,0c0.6,0,1.1,0.1,1.6,0.5c1,0.9,0.8,2.3-0.5,2.7c-0.6,0.2-1.2,0.4-1.9,0.4
		c-3.2,0-6.5,0.3-9.7,0.2c-0.2,0-0.3,0-0.5,0c-1.1,0.1-1.3,0.3-1.2,1.4c0,0.2,0,0.3,0.1,0.5c0.1,0.3,0.3,0.7-0.1,0.9
		c-0.4,0.2-0.6-0.2-0.9-0.4c-0.7-0.5-1.4-1-1.9-1.8c-1.1-1.7-0.4-3.6,1.6-4.1c0.7-0.2,1.3-0.3,2-0.3c1,0,2.1,0,3.1,0
		C243.3,153.4,245.4,153.1,247.5,153.1"/>
	<path class="st0" d="M242.9,152c-0.7,0.1-1.3-0.3-1.8-0.6c-2.5-1.4-3.8-5.2-1.8-7.8c1.8-2.3,3.3-2.3,5.4-0.6c2,1.6,2.5,5.1,1,7.2
		C245.1,151.2,244.1,151.7,242.9,152 M242.6,145.5c-0.8,0-1.3,0.4-1.3,1.2c0,0.9,0.5,1.6,1.3,1.6c0.7,0,1.1-0.4,1.2-1.2
		C243.8,146.1,243.3,145.5,242.6,145.5"/>
	<path class="st1" d="M315.5,119.3c0.5-0.5,1-0.4,1.5-0.1c0.5,0.2,1,0.5,1.7,0.1c-0.9,0.8-1.3,0.9-2,0.5
		C316.4,119.6,316,119.4,315.5,119.3"/>
	<path class="st1" d="M376.7,106.4c0.1,0.3,0.3,0.6,0.5,0.9c0.1,0.2,0.1,0.4-0.1,0.5c-0.1,0.1-0.3,0.1-0.4,0c-0.6-0.4-1-0.8-1-1.6
		C376.1,106,376.3,106.4,376.7,106.4L376.7,106.4z"/>
</g>
</svg>
